<svg width="35" height="35" viewBox="0 0 35 35" fill="none" xmlns="http://www.w3.org/2000/svg">
<path d="M17.5 12.9438C14.9913 12.9438 12.9439 14.9912 12.9439 17.5C12.9439 20.0088 14.9913 22.0561 17.5 22.0561C20.0088 22.0561 22.0562 20.0088 22.0562 17.5C22.0562 14.9912 20.0088 12.9438 17.5 12.9438ZM31.1651 17.5C31.1651 15.6133 31.1822 13.7436 31.0762 11.8603C30.9703 9.67285 30.4712 7.73144 28.8716 6.13183C27.2686 4.5288 25.3306 4.0332 23.1431 3.92724C21.2564 3.82128 19.3868 3.83837 17.5035 3.83837C15.6167 3.83837 13.7471 3.82128 11.8638 3.92724C9.67631 4.0332 7.7349 4.53222 6.13529 6.13183C4.53227 7.73486 4.03666 9.67285 3.9307 11.8603C3.82475 13.7471 3.84184 15.6167 3.84184 17.5C3.84184 19.3833 3.82475 21.2563 3.9307 23.1396C4.03666 25.3271 4.53568 27.2685 6.13529 28.8682C7.73832 30.4712 9.67631 30.9668 11.8638 31.0727C13.7505 31.1787 15.6202 31.1616 17.5035 31.1616C19.3902 31.1616 21.2598 31.1787 23.1431 31.0727C25.3306 30.9668 27.272 30.4678 28.8716 28.8682C30.4747 27.2651 30.9703 25.3271 31.0762 23.1396C31.1856 21.2563 31.1651 19.3867 31.1651 17.5ZM17.5 24.5102C13.6206 24.5102 10.4898 21.3794 10.4898 17.5C10.4898 13.6206 13.6206 10.4897 17.5 10.4897C21.3794 10.4897 24.5103 13.6206 24.5103 17.5C24.5103 21.3794 21.3794 24.5102 17.5 24.5102ZM24.7974 11.8398C23.8916 11.8398 23.1602 11.1084 23.1602 10.2026C23.1602 9.29687 23.8916 8.56542 24.7974 8.56542C25.7032 8.56542 26.4346 9.29687 26.4346 10.2026C26.4349 10.4177 26.3927 10.6307 26.3105 10.8295C26.2284 11.0282 26.1078 11.2088 25.9557 11.3609C25.8036 11.513 25.623 11.6336 25.4243 11.7158C25.2255 11.7979 25.0125 11.8401 24.7974 11.8398Z" fill="url(#paint0_linear)"/>
<defs>
<linearGradient id="paint0_linear" x1="17.5037" y1="3.83736" x2="17.5037" y2="31.1626" gradientUnits="userSpaceOnUse">
<stop offset="0.286978" stop-color="#6D5EC3"/>
<stop offset="0.589067" stop-color="#CC2C94"/>
<stop offset="1" stop-color="#FA9E49"/>
</linearGradient>
</defs>
</svg>
