<svg width="33" height="34" viewBox="0 0 33 34" fill="none" xmlns="http://www.w3.org/2000/svg">
<path d="M0 0H28C30.7614 0 33 2.23858 33 5V29C33 31.7614 30.7614 34 28 34H0V0Z" fill="#2267A0"/>
<path d="M21 9H23C23.5304 9 24.0391 9.21071 24.4142 9.58579C24.7893 9.96086 25 10.4696 25 11V25C25 25.5304 24.7893 26.0391 24.4142 26.4142C24.0391 26.7893 23.5304 27 23 27H9C8.46957 27 7.96086 26.7893 7.58579 26.4142C7.21071 26.0391 7 25.5304 7 25V11C7 9.9 7.9 9 9 9H11V7H13V9H19V7H21V9ZM9.5 12.5V25H23V12.5H9.5ZM15 18V14H17V18H21V20H17V24H15V20H11V18H15Z" fill="white"/>
</svg>
