<svg width="24" height="24" viewBox="0 0 24 24" fill="none" xmlns="http://www.w3.org/2000/svg">
<circle cx="12" cy="12" r="9.5" stroke="#E5E5E5"/>
<path d="M16.4735 10.1525C16.4685 9.77382 16.3976 9.3989 16.264 9.04451C16.1482 8.74559 15.9713 8.47411 15.7446 8.24742C15.5179 8.02074 15.2464 7.84383 14.9475 7.72801C14.5977 7.59669 14.2281 7.52568 13.8545 7.51801C13.3735 7.49651 13.221 7.49051 12 7.49051C10.779 7.49051 10.6225 7.49051 10.145 7.51801C9.77158 7.52574 9.40218 7.59674 9.0525 7.72801C8.75353 7.84375 8.48202 8.02063 8.25532 8.24733C8.02863 8.47402 7.85175 8.74554 7.736 9.04451C7.60442 9.39408 7.53357 9.76356 7.5265 10.137C7.505 10.6185 7.4985 10.771 7.4985 11.992C7.4985 13.213 7.4985 13.369 7.5265 13.847C7.534 14.221 7.6045 14.59 7.736 14.9405C7.85194 15.2394 8.02895 15.5108 8.25572 15.7374C8.48249 15.964 8.75404 16.1408 9.053 16.2565C9.40172 16.3931 9.77119 16.4692 10.1455 16.4815C10.627 16.503 10.7795 16.5095 12.0005 16.5095C13.2215 16.5095 13.378 16.5095 13.8555 16.4815C14.2291 16.4742 14.5987 16.4033 14.9485 16.272C15.2474 16.156 15.5188 15.9791 15.7454 15.7524C15.9721 15.5258 16.149 15.2544 16.265 14.9555C16.3965 14.6055 16.467 14.2365 16.4745 13.862C16.496 13.381 16.5025 13.2285 16.5025 12.007C16.5015 10.786 16.5015 10.631 16.4735 10.1525V10.1525ZM11.997 14.301C10.72 14.301 9.6855 13.2665 9.6855 11.9895C9.6855 10.7125 10.72 9.67801 11.997 9.67801C12.6101 9.67801 13.198 9.92154 13.6315 10.355C14.065 10.7885 14.3085 11.3765 14.3085 11.9895C14.3085 12.6026 14.065 13.1905 13.6315 13.624C13.198 14.0575 12.6101 14.301 11.997 14.301V14.301ZM14.4005 10.1315C14.3297 10.1316 14.2596 10.1177 14.1942 10.0906C14.1287 10.0636 14.0693 10.0239 14.0192 9.97379C13.9692 9.92372 13.9295 9.86428 13.9024 9.79885C13.8753 9.73343 13.8614 9.66331 13.8615 9.59251C13.8615 9.52176 13.8754 9.4517 13.9025 9.38634C13.9296 9.32097 13.9693 9.26158 14.0193 9.21156C14.0693 9.16153 14.1287 9.12184 14.1941 9.09477C14.2594 9.06769 14.3295 9.05376 14.4003 9.05376C14.471 9.05376 14.5411 9.06769 14.6064 9.09477C14.6718 9.12184 14.7312 9.16153 14.7812 9.21156C14.8312 9.26158 14.8709 9.32097 14.898 9.38634C14.9251 9.4517 14.939 9.52176 14.939 9.59251C14.939 9.89051 14.698 10.1315 14.4005 10.1315Z" fill="#4C7BF3"/>
<path d="M11.997 13.491C12.8263 13.491 13.4985 12.8187 13.4985 11.9895C13.4985 11.1602 12.8263 10.488 11.997 10.488C11.1678 10.488 10.4955 11.1602 10.4955 11.9895C10.4955 12.8187 11.1678 13.491 11.997 13.491Z" fill="#4C7BF3"/>
</svg>
