<svg width="24" height="24" viewBox="0 0 24 24" fill="none" xmlns="http://www.w3.org/2000/svg">
<circle cx="12" cy="12" r="10" fill="#4C7BF3"/>
<path d="M10.2547 15.9969C10.9114 16.0216 11.5659 15.8979 12.1795 15.6331C12.7931 15.3683 13.3533 14.9677 13.8269 14.4551C14.3006 13.9425 14.6782 13.3282 14.9373 12.6485C15.1965 11.9688 15.332 11.2376 15.3358 10.498C15.6367 10.0787 15.8602 9.59604 15.9931 9.07823C16.003 9.03732 16.0022 8.99405 15.9908 8.95364C15.9794 8.91323 15.9578 8.8774 15.9287 8.85045C15.8996 8.82351 15.8642 8.80662 15.8268 8.8018C15.7894 8.79697 15.7515 8.80443 15.7177 8.82328C15.5603 8.90859 15.383 8.93614 15.2109 8.90207C15.0388 8.86799 14.8805 8.77399 14.7584 8.63331C14.6024 8.44114 14.4138 8.28615 14.2037 8.17751C13.9936 8.06888 13.7663 8.00883 13.5352 8.0009C13.304 7.99298 13.0739 8.03735 12.8583 8.13138C12.6427 8.22541 12.446 8.3672 12.28 8.54833C12.0527 8.79611 11.8862 9.10587 11.7967 9.4475C11.7072 9.78912 11.6977 10.151 11.7692 10.498C10.2813 10.5979 9.25978 9.80309 8.44254 8.7133C8.41799 8.68201 8.38588 8.65944 8.35012 8.64835C8.31436 8.63726 8.2765 8.63813 8.24118 8.65085C8.20585 8.66357 8.17458 8.6876 8.15118 8.72C8.12779 8.75239 8.11328 8.79175 8.10943 8.83328C7.95374 9.8053 8.06605 10.8077 8.43127 11.7058C8.79649 12.6039 9.39713 13.3546 10.1525 13.8573C9.64603 14.5111 8.93475 14.9194 8.16717 14.9971C8.12605 15.0048 8.08808 15.0267 8.0586 15.0599C8.02911 15.0931 8.00957 15.1358 8.00272 15.182C7.99587 15.2283 8.00204 15.2759 8.02038 15.318C8.03872 15.3601 8.0683 15.3947 8.10499 15.417C8.77278 15.7926 9.50816 15.991 10.2547 15.9969Z" fill="white"/>
</svg>
