<svg width="29" height="30" viewBox="0 0 29 30" fill="none" xmlns="http://www.w3.org/2000/svg">
<path d="M4.83345 7.5V25.8333C4.82596 26.154 4.87962 26.4731 4.99136 26.7723C5.1031 27.0715 5.27073 27.345 5.48469 27.5771C5.69864 27.8093 5.95472 27.9956 6.23829 28.1253C6.52186 28.2551 6.82736 28.3258 7.13734 28.3333H21.8226C22.136 28.3312 22.4459 28.2645 22.7341 28.1372C23.0223 28.0099 23.2832 27.8245 23.5014 27.5917C23.7196 27.359 23.8908 27.0837 24.0051 26.7818C24.1193 26.4799 24.1743 26.1575 24.1668 25.8333V7.5H4.83345ZM12.0835 24.1667H10.4723V11.6667H12.0835V24.1667ZM18.5279 24.1667H16.9168V11.6667H18.5279V24.1667Z" fill="#545454"/>
<path d="M24.7547 4.16669H18.5277V3.33335C18.5277 2.89133 18.358 2.4674 18.0558 2.15484C17.7537 1.84228 17.3439 1.66669 16.9166 1.66669H11.9222C11.5234 1.70814 11.1538 1.90188 10.8857 2.21006C10.6176 2.51824 10.4702 2.91874 10.4722 3.33335V4.16669H4.02772C3.81408 4.16669 3.60918 4.25448 3.45811 4.41076C3.30704 4.56705 3.22217 4.77901 3.22217 5.00002C3.22217 5.22103 3.30704 5.433 3.45811 5.58928C3.60918 5.74556 3.81408 5.83335 4.02772 5.83335H24.7547C24.9683 5.83335 25.1732 5.74556 25.3243 5.58928C25.4754 5.433 25.5602 5.22103 25.5602 5.00002C25.5602 4.77901 25.4754 4.56705 25.3243 4.41076C25.1732 4.25448 24.9683 4.16669 24.7547 4.16669Z" fill="#545454"/>
</svg>
